<svg xmlns="http://www.w3.org/2000/svg">

<symbol id="icon-instagram" viewBox="0 0 24 24">
<path fill="#f4f4fd" d="M7.8 2h8.4A5.8 5.8 0 0 1 22 7.8v8.4A5.8 5.8 0 0 1 16.2 22H7.8A5.8 5.8 0 0 1 2 16.2V7.8A5.8 5.8 0 0 1 7.8 2zm0 2A3.8 3.8 0 0 0 4 7.8v8.4A3.8 3.8 0 0 0 7.8 20h8.4a3.8 3.8 0 0 0 3.8-3.8V7.8A3.8 3.8 0 0 0 16.2 4H7.8zm8.95 1.5a1.25 1.25 0 1 1 0 2.5 1.25 1.25 0 0 1 0-2.5zM12 7a5 5 0 1 1 0 10 5 5 0 0 1 0-10zm0 2a3 3 0 1 0 0 6 3 3 0 0 0 0-6z"/>
</symbol>

<symbol id="icon-twitter" viewBox="0 0 24 24">
<path fill="#f4f4fd" d="M22 5.8c-.7.3-1.5.5-2.3.6a4 4 0 0 0 1.7-2.2c-.8.5-1.7.8-2.6 1A4 4 0 0 0 12 8.3a11.3 11.3 0 0 1-8.2-4.2 4 4 0 0 0 1.2 5.3c-.6 0-1.2-.2-1.7-.5 0 2 1.4 3.6 3.2 4-.5.2-1 .2-1.6.1.5 1.7 2 2.9 3.8 3A8.1 8.1 0 0 1 2 18.6 11.4 11.4 0 0 0 8.3 20c7.5 0 11.7-6.3 11.7-11.7v-.5c.8-.5 1.5-1.2 2-2z"/>
</symbol>

<symbol id="icon-facebook" viewBox="0 0 24 24">
<path fill="#f4f4fd" d="M13.5 22v-8h2.7l.4-3h-3.1V9c0-.9.3-1.5 1.6-1.5h1.7V4.8c-.3 0-1.3-.1-2.4-.1-2.4 0-4 1.5-4 4.2V11H8v3h2.7v8h2.8z"/>
</symbol>

<symbol id="icon-linkedin" viewBox="0 0 24 24">
<path fill="#f4f4fd" d="M4.98 3.5A1.48 1.48 0 1 1 5 6.46 1.48 1.48 0 0 1 4.98 3.5zM3.5 8h3v12h-3V8zm7 0h2.8v1.7h.1c.4-.7 1.4-1.7 3-1.7 3.2 0 3.8 2.1 3.8 4.9V20h-3v-6.2c0-1.5 0-3.3-2-3.3s-2.3 1.6-2.3 3.2V20h-3V8z"/>
</symbol>

<symbol id="icon-antenna" viewBox="0 0 64 64">
<path fill="currentColor" d="M32 6a26 26 0 0 0-26 26h4A22 22 0 1 1 54 32h4A26 26 0 0 0 32 6z"/>
</symbol>

<symbol id="icon-clock" viewBox="0 0 64 64">
<circle cx="32" cy="32" r="26" fill="none" stroke="currentColor" stroke-width="4"/>
</symbol>

<symbol id="icon-diagram" viewBox="0 0 64 64">
<rect x="10" y="10" width="44" height="44" fill="none" stroke="currentColor" stroke-width="4"/>
</symbol>

<symbol id="icon-astronaut" viewBox="0 0 64 64">
<circle cx="32" cy="24" r="12" fill="none" stroke="currentColor" stroke-width="4"/>
</symbol>

</svg>